<svg width="164" height="60" viewBox="0 0 164 60" fill="none" xmlns="http://www.w3.org/2000/svg">
    <path
        d="M5.74416 32.0496C5.95576 33.4524 6.33142 34.5128 6.8735 35.2284C7.41558 35.944 8.28101 36.3007 9.46978 36.3007C10.9771 36.3007 12.0518 35.8133 12.7009 34.8385C13.3476 33.8637 13.6733 32.2327 13.6733 29.9455V13.3716H19.8169V29.9835C19.8169 31.5693 19.679 33.091 19.4008 34.546C19.1226 36.0011 18.6091 37.2874 17.8554 38.4072C17.1017 39.5246 16.0651 40.4138 14.7432 41.0772C13.4213 41.7405 11.7047 42.0734 9.59104 42.0734C6.49784 42.0734 4.14645 41.1889 2.53685 39.4224C0.927244 37.6559 0.0784592 35.1975 0 32.052H5.74654L5.74416 32.0496Z"
        fill="#11478E" />
    <path
        d="M42.5649 19.8433V41.6002H36.4213L37.6505 36.0629H37.0181C36.7542 36.6858 36.4237 37.3492 36.0267 38.0505C35.632 38.7543 35.1279 39.3962 34.5193 39.9811C33.9106 40.566 33.1784 41.0486 32.3201 41.4243C31.4618 41.7999 30.437 41.9901 29.2483 41.9901C27.9263 41.9901 26.8422 41.7619 25.9982 41.3078C25.1517 40.8537 24.4908 40.2284 24.0177 39.4366C23.5421 38.6425 23.2117 37.6963 23.0262 36.5907C22.8408 35.4852 22.748 34.2845 22.748 32.984V19.8433H28.3757V32.984C28.3757 34.2583 28.7062 35.2189 29.3671 35.8703C30.0281 36.5194 30.9934 36.8451 32.2606 36.8451C33.0523 36.8451 33.7418 36.7215 34.322 36.4742C34.9045 36.227 35.3776 35.9226 35.7485 35.5589C36.1194 35.1951 36.3904 34.7862 36.5592 34.332C36.7304 33.8779 36.816 33.4428 36.816 33.0244V19.8456H42.5649V19.8433Z"
        fill="#11478E" />
    <path
        d="M48.0003 33.8825C48.1595 34.4555 48.4163 34.9738 48.773 35.4422C49.1296 35.9106 49.5647 36.3076 50.0806 36.631C50.5965 36.9543 51.1576 37.2087 51.7663 37.3918C52.3749 37.5725 52.9955 37.6652 53.6279 37.6652C54.6598 37.6652 55.5181 37.4964 56.2052 37.1588C56.8923 36.8212 57.237 36.2886 57.237 35.5587C57.237 35.0404 57.0587 34.6101 56.7021 34.2725C56.3455 33.9348 55.908 33.6686 55.3944 33.4736C54.8809 33.2786 54.3364 33.1289 53.7682 33.0266C53.2 32.922 52.7054 32.8317 52.2822 32.7532C51.3574 32.5725 50.4586 32.3371 49.5861 32.0494C48.7135 31.7641 47.9408 31.3671 47.268 30.8607C46.5951 30.3543 46.0578 29.7099 45.6631 28.9301C45.2684 28.1503 45.0687 27.2016 45.0687 26.0842C45.0687 24.9667 45.3112 24.0371 45.801 23.2169C46.2908 22.3966 46.9304 21.7095 47.7221 21.1508C48.5162 20.592 49.4197 20.1712 50.4372 19.8835C51.4548 19.5982 52.4914 19.4556 53.5495 19.4556C54.5005 19.4556 55.4515 19.5721 56.4049 19.8074C57.3583 20.0404 58.2332 20.3923 59.0416 20.8583C59.8476 21.3267 60.5537 21.9306 61.1624 22.6724C61.771 23.4118 62.2061 24.2915 62.47 25.3043L58.5066 27.9553C58.452 27.437 58.2879 26.9353 58.0121 26.4527C57.7339 25.9701 57.3702 25.5564 56.9208 25.2045C56.4715 24.8526 55.9555 24.5744 55.3754 24.3652C54.7929 24.1584 54.1724 24.0537 53.5138 24.0537C52.5889 24.0537 51.8281 24.2416 51.2361 24.6196C50.6417 24.9976 50.3421 25.5112 50.3421 26.1603C50.3421 26.6548 50.5276 27.0661 50.8961 27.3871C51.267 27.7128 51.714 27.9791 52.2442 28.1859C52.772 28.3928 53.326 28.5497 53.9085 28.6543C54.491 28.7589 54.9807 28.8493 55.3754 28.9277C56.3787 29.1084 57.3369 29.3509 58.2499 29.6481C59.1628 29.9477 59.9688 30.3424 60.6655 30.8369C61.3668 31.3314 61.9256 31.9543 62.3511 32.708C62.7743 33.4617 62.9836 34.3985 62.9836 35.5159C62.9836 36.6334 62.7125 37.5178 62.1728 38.3238C61.6307 39.1298 60.9103 39.8074 60.014 40.3519C59.1153 40.8963 58.1048 41.3124 56.9803 41.6001C55.8581 41.8854 54.7145 42.028 53.5518 42.028C52.627 42.028 51.695 41.9377 50.7558 41.7546C49.8167 41.5739 48.9323 41.2862 48.1001 40.8963C47.268 40.5064 46.5285 40.0071 45.8819 39.3961C45.2352 38.785 44.7264 38.0646 44.3555 37.2325L48.0026 33.8778V33.873L48.0003 33.8825Z"
        fill="#11478E" />
    <path
        d="M65.0023 19.8842C65.8748 19.8842 66.5738 19.625 67.1016 19.1043C67.6294 18.586 67.8933 17.9084 67.8933 17.0763V14.1899H72.8886V19.8842H78.7564V24.4847H72.8886V34.1566C72.8886 34.7034 72.9742 35.1385 73.1454 35.4643C73.3165 35.79 73.5947 36.0372 73.9799 36.2037C74.3627 36.3725 74.8643 36.4914 75.4872 36.5556C76.1078 36.6197 76.8543 36.653 77.7269 36.653V41.955C75.6656 41.955 73.9609 41.8195 72.6128 41.546C71.2647 41.2726 70.1948 40.8328 69.4031 40.2194C68.6114 39.6083 68.055 38.8095 67.7388 37.8204C67.4226 36.8337 67.2633 35.6117 67.2633 34.1542V24.4824H63.1406V19.8818H65.0023V19.8842Z"
        fill="#11478E" />
    <path
        d="M84.752 27.7593C84.752 25.6528 85.1015 23.7246 85.8028 21.97C86.5042 20.2153 87.4671 18.7008 88.6963 17.4288C89.9255 16.1568 91.3829 15.1654 93.0781 14.4664C94.7686 13.765 96.6064 13.4155 98.5869 13.4155C99.935 13.4155 101.243 13.5915 102.51 13.9433C103.779 14.2952 104.935 14.8207 105.979 15.522C107.022 16.2234 107.947 17.096 108.753 18.135C109.559 19.1763 110.175 20.3841 110.596 21.7607L107.386 23.5914C107.122 22.3694 106.704 21.309 106.138 20.4127C105.57 19.5163 104.89 18.7745 104.098 18.1896C103.306 17.6048 102.439 17.1744 101.502 16.9034C100.563 16.63 99.5807 16.4945 98.5489 16.4945C97.0415 16.4945 95.6625 16.7821 94.4072 17.3527C93.1518 17.9257 92.0748 18.7056 91.1761 19.6923C90.2774 20.6789 89.576 21.8558 89.0767 23.2229C88.5751 24.5876 88.3254 26.076 88.3254 27.688C88.3254 29.2999 88.5822 30.7954 89.0981 32.172C89.6117 33.551 90.3273 34.7469 91.2379 35.7597C92.1485 36.775 93.2398 37.5667 94.507 38.1397C95.7767 38.7127 97.1628 38.998 98.6701 38.998C99.702 38.998 100.691 38.8482 101.644 38.551C102.598 38.2538 103.468 37.8021 104.262 37.2077C105.054 36.6109 105.734 35.862 106.302 34.9656C106.87 34.0693 107.286 33.0089 107.55 31.7869V30.6551H97.6811V27.5738H111.119V31.5895C110.855 33.3299 110.332 34.8539 109.552 36.152C108.772 37.4502 107.828 38.5439 106.718 39.4259C105.608 40.3104 104.352 40.9737 102.952 41.4136C101.552 41.8558 100.097 42.0769 98.5917 42.0769C96.6112 42.0769 94.7733 41.725 93.0829 41.026C91.3925 40.3223 89.9326 39.3356 88.7011 38.0636C87.4719 36.7916 86.5066 35.2819 85.8076 33.5415C85.1062 31.8011 84.7567 29.8753 84.7567 27.7712L84.752 27.7664V27.7593Z"
        fill="#D49000" />
    <path
        d="M114.023 31.0745C114.023 29.5148 114.275 28.0669 114.777 26.7283C115.279 25.3898 115.987 24.239 116.898 23.2785C117.808 22.318 118.9 21.5643 120.167 21.0151C121.437 20.4682 122.823 20.1948 124.328 20.1948C125.833 20.1948 127.221 20.4682 128.491 21.0151C129.76 21.5619 130.849 22.3132 131.76 23.2785C132.671 24.239 133.379 25.3921 133.881 26.7283C134.382 28.0669 134.632 29.5148 134.632 31.0745C134.632 32.6342 134.375 34.0821 133.859 35.423C133.346 36.7616 132.63 37.9195 131.72 38.8943C130.809 39.869 129.718 40.6299 128.45 41.1767C127.181 41.7212 125.78 41.997 124.249 41.997C122.718 41.997 121.363 41.7235 120.108 41.1767C118.852 40.6299 117.775 39.869 116.876 38.8943C115.978 37.9195 115.276 36.7616 114.777 35.423C114.273 34.0845 114.023 32.6365 114.023 31.0745ZM124.29 39.1843C125.322 39.1843 126.258 38.9846 127.105 38.5804C127.949 38.1786 128.683 37.6128 129.304 36.8852C129.924 36.1577 130.407 35.3018 130.752 34.3103C131.097 33.3237 131.265 32.2442 131.265 31.0745C131.265 29.9047 131.092 28.8325 130.752 27.8577C130.407 26.8829 129.932 26.0317 129.325 25.3042C128.717 24.5766 127.992 24.0108 127.145 23.609C126.299 23.2072 125.374 23.0051 124.371 23.0051C123.367 23.0051 122.4 23.2072 121.556 23.609C120.709 24.0132 119.974 24.5766 119.356 25.3042C118.733 26.0341 118.253 26.8829 117.908 27.8577C117.564 28.8325 117.395 29.9047 117.395 31.0745C117.395 32.2442 117.561 33.3237 117.889 34.3103C118.22 35.297 118.688 36.1577 119.297 36.8852C119.903 37.6151 120.631 38.1786 121.477 38.5804C122.321 38.9846 123.26 39.1843 124.292 39.1843H124.29Z"
        fill="#D49000" />
    <path d="M141.243 10.4849V41.6022H137.834V10.4849H141.243Z" fill="#D49000" />
    <path
        d="M159.965 41.6029L160.716 36.5339H160.084C159.898 37.2638 159.601 37.9628 159.19 38.6404C158.779 39.3157 158.272 39.9148 157.664 40.4355C157.055 40.9562 156.356 41.3722 155.564 41.6837C154.772 41.9951 153.886 42.1521 152.909 42.1521C151.613 42.1521 150.405 41.8715 149.283 41.3128C148.161 40.7541 147.195 39.9742 146.389 38.9733C145.583 37.9723 144.948 36.7836 144.487 35.407C144.024 34.0304 143.793 32.5349 143.793 30.9229C143.793 29.4155 143.997 28.0056 144.406 26.6932C144.815 25.3808 145.391 24.2444 146.13 23.2815C146.87 22.3209 147.756 21.5672 148.786 21.018C149.818 20.4712 150.954 20.1978 152.195 20.1978C153.251 20.1978 154.223 20.3856 155.11 20.7636C155.995 21.1417 156.774 21.6148 157.45 22.1878C158.122 22.7608 158.684 23.3766 159.135 24.0399C159.585 24.7032 159.901 25.3071 160.089 25.854H160.721L159.97 10.4902H163.417V41.6076H159.965V41.6029ZM153.427 39.1849C154.43 39.1849 155.336 38.9709 156.142 38.5406C156.948 38.1126 157.633 37.5254 158.203 36.7859C158.772 36.0465 159.207 35.1858 159.511 34.2111C159.815 33.2363 159.965 32.2044 159.965 31.1107C159.965 30.0171 159.813 28.9852 159.511 28.0128C159.207 27.038 158.769 26.1868 158.203 25.4593C157.635 24.7318 156.948 24.1588 156.142 23.7451C155.336 23.329 154.433 23.1222 153.427 23.1222C152.421 23.1222 151.537 23.329 150.771 23.7451C150.006 24.1611 149.364 24.7318 148.85 25.4593C148.336 26.1892 147.944 27.038 147.68 28.0128C147.416 28.9876 147.286 30.0194 147.286 31.1107C147.286 32.202 147.419 33.2363 147.68 34.2111C147.944 35.1858 148.334 36.0441 148.85 36.7859C149.364 37.5254 150.006 38.1126 150.771 38.5406C151.537 38.9685 152.421 39.1849 153.427 39.1849Z"
        fill="#D49000" />
    <path
        d="M151.984 0L153.919 5.22823L159.147 7.16356L153.919 9.09888L151.984 14.3271L150.049 9.09888L144.82 7.16356L150.049 5.22823L151.984 0Z"
        fill="#D49000" />
    <path
        d="M56.6697 51.0663V54.7111C56.6697 55.013 56.7339 55.2246 56.8623 55.3483C56.9907 55.4719 57.2118 55.5337 57.528 55.5337H58.2841V56.4039H57.3592C56.7862 56.4039 56.3582 56.2731 56.0729 56.0092C55.7876 55.7453 55.645 55.3126 55.645 54.7111V51.0663H54.8438V50.2199H55.645V48.6626H56.6721V50.2199H58.2864V51.0663H56.6721H56.6697Z"
        fill="#1E1E1E" />
    <path
        d="M60.874 50.4013C61.2093 50.2064 61.6158 50.1089 62.0985 50.1089V51.1693H61.8274C60.6767 51.1693 60.1013 51.7946 60.1013 53.0428V56.407H59.0742V50.223H60.1013V51.2263C60.282 50.8721 60.5388 50.5987 60.874 50.4013Z"
        fill="#1E1E1E" />
    <path
        d="M68.3175 50.2212V56.4052H67.2904V55.4922C67.0954 55.8084 66.822 56.0557 66.4725 56.2316C66.123 56.4076 65.7378 56.4979 65.3146 56.4979C64.832 56.4979 64.4016 56.3981 64.0165 56.1984C63.6337 55.9986 63.3294 55.6991 63.1083 55.302C62.8871 54.9026 62.7754 54.4176 62.7754 53.847V50.2236H63.7906V53.7114C63.7906 54.3201 63.9451 54.7885 64.2542 55.1166C64.5633 55.4447 64.9841 55.6063 65.5191 55.6063C66.054 55.6063 66.501 55.4375 66.8172 55.0975C67.1334 54.7599 67.2904 54.2654 67.2904 53.6187V50.2212H68.3175Z"
        fill="#1E1E1E" />
    <path
        d="M70.5166 56.2646C70.141 56.1029 69.8438 55.8771 69.6251 55.587C69.4063 55.297 69.2874 54.9641 69.2637 54.5884H70.3241C70.355 54.8975 70.5 55.1495 70.7592 55.3445C71.0183 55.5395 71.3583 55.6369 71.7815 55.6369C72.1738 55.6369 72.4805 55.5514 72.7064 55.3778C72.9322 55.2042 73.044 54.9879 73.044 54.724C73.044 54.4601 72.9227 54.2508 72.6826 54.1201C72.4425 53.9893 72.0692 53.8585 71.5651 53.7302C71.1063 53.6089 70.7306 53.4876 70.4429 53.364C70.1529 53.2404 69.9056 53.0549 69.6988 52.81C69.4919 52.5651 69.3873 52.2442 69.3873 51.8448C69.3873 51.5285 69.4824 51.2385 69.6702 50.9746C69.8581 50.7107 70.1243 50.5014 70.4715 50.3493C70.8186 50.1947 71.2133 50.1187 71.6555 50.1187C72.3402 50.1187 72.8942 50.2922 73.315 50.637C73.7358 50.9841 73.9617 51.4572 73.9926 52.0587H72.9655C72.9417 51.7354 72.8134 51.4762 72.5756 51.2789C72.3378 51.0839 72.0216 50.9865 71.6222 50.9865C71.2537 50.9865 70.9589 51.0649 70.7425 51.2242C70.5238 51.3835 70.4144 51.5904 70.4144 51.8448C70.4144 52.0468 70.481 52.2157 70.6117 52.3464C70.7425 52.4772 70.9089 52.5842 71.1087 52.6626C71.3084 52.7411 71.5842 52.8291 71.9384 52.9289C72.383 53.0502 72.7444 53.1667 73.0226 53.2855C73.3008 53.402 73.5409 53.578 73.7382 53.811C73.9379 54.044 74.0402 54.3483 74.0497 54.724C74.0497 55.0616 73.9546 55.3683 73.7668 55.6369C73.5789 55.908 73.3126 56.1196 72.9703 56.2741C72.6279 56.4287 72.2356 56.5048 71.791 56.5048C71.3179 56.5048 70.8923 56.4239 70.5166 56.2622V56.2646Z"
        fill="#1E1E1E" />
    <path
        d="M76.2967 51.0663V54.7111C76.2967 55.013 76.3609 55.2246 76.4892 55.3483C76.6176 55.4719 76.8387 55.5337 77.155 55.5337H77.911V56.4039H76.9862C76.4132 56.4039 75.9852 56.2731 75.6999 56.0092C75.4146 55.7453 75.2719 55.3126 75.2719 54.7111V51.0663H74.4707V50.2199H75.2719V48.6626H76.299V50.2199H77.9134V51.0663H76.299H76.2967Z"
        fill="#1E1E1E" />
    <path d="M79.759 54.9829L78.4942 58.019H77.8047L78.6297 54.9829H79.759Z" fill="#1E1E1E" />
    <path
        d="M84.9954 50.4678C85.4019 50.2348 85.8655 50.1183 86.3838 50.1183C86.9402 50.1183 87.4419 50.2491 87.8841 50.513C88.3287 50.7769 88.6782 51.1478 88.9326 51.6257C89.1894 52.1036 89.3154 52.6576 89.3154 53.29C89.3154 53.9224 89.187 54.4716 88.9326 54.9614C88.6758 55.4512 88.3239 55.8292 87.877 56.1003C87.43 56.3713 86.9307 56.5068 86.3815 56.5068C85.8323 56.5068 85.3782 56.3903 84.9763 56.1573C84.5745 55.9243 84.2702 55.6271 84.0681 55.2657V56.4046H83.041V48.0522H84.0681V51.3713C84.2797 51.0028 84.5864 50.7008 84.993 50.4678H84.9954ZM87.9863 52.0703C87.7985 51.7232 87.5441 51.4617 87.2255 51.281C86.9045 51.1003 86.555 51.0099 86.1699 51.0099C85.7847 51.0099 85.4447 51.1026 85.1261 51.2857C84.8052 51.4712 84.5508 51.7374 84.3582 52.0869C84.1656 52.4364 84.0705 52.8406 84.0705 53.2995C84.0705 53.7584 84.1656 54.1744 84.3582 54.5239C84.5508 54.8734 84.8052 55.1421 85.1261 55.3252C85.4447 55.5106 85.7942 55.601 86.1699 55.601C86.5455 55.601 86.9045 55.5082 87.2255 55.3252C87.5441 55.1397 87.7985 54.8734 87.9863 54.5239C88.1741 54.1744 88.2693 53.7631 88.2693 53.2876C88.2693 52.8121 88.1741 52.4151 87.9863 52.0679V52.0703Z"
        fill="#1E1E1E" />
    <path
        d="M90.2246 51.626C90.4814 51.1481 90.8332 50.7772 91.2802 50.5133C91.7272 50.2494 92.2265 50.1187 92.7757 50.1187C93.3249 50.1187 93.7885 50.2352 94.1856 50.4682C94.585 50.7012 94.8822 50.996 95.0772 51.3478V50.2185H96.1161V56.4025H95.0772V55.2518C94.8751 55.6132 94.5707 55.9127 94.1689 56.1481C93.7671 56.3859 93.2987 56.5048 92.7638 56.5048C92.2289 56.5048 91.7177 56.3692 91.2731 56.0982C90.8285 55.8271 90.479 55.4467 90.2246 54.9593C89.9678 54.4696 89.8418 53.9132 89.8418 53.2879C89.8418 52.6626 89.9702 52.1015 90.2246 51.6236V51.626ZM94.7942 52.0825C94.6064 51.7354 94.352 51.4715 94.0334 51.286C93.7124 51.103 93.3629 51.0102 92.9778 51.0102C92.5926 51.0102 92.2431 51.1006 91.9293 51.2813C91.6131 51.462 91.361 51.7259 91.1732 52.0706C90.9854 52.4177 90.8903 52.8243 90.8903 53.2903C90.8903 53.7563 90.9854 54.1771 91.1732 54.5266C91.361 54.8761 91.6131 55.1448 91.9293 55.3279C92.2455 55.5133 92.595 55.6037 92.9778 55.6037C93.3606 55.6037 93.7124 55.5109 94.0334 55.3279C94.352 55.1424 94.6064 54.8761 94.7942 54.5266C94.9821 54.1771 95.0772 53.7682 95.0772 53.3022C95.0772 52.8362 94.9821 52.4296 94.7942 52.0825Z"
        fill="#1E1E1E" />
    <path
        d="M97.4023 51.626C97.6591 51.1481 98.0133 50.7772 98.4698 50.5133C98.924 50.2494 99.447 50.1187 100.032 50.1187C100.793 50.1187 101.418 50.3041 101.91 50.6726C102.402 51.0411 102.728 51.5523 102.887 52.2085H101.782C101.677 51.8329 101.47 51.5357 101.166 51.3169C100.862 51.0982 100.484 50.9888 100.032 50.9888C99.4446 50.9888 98.9715 51.1909 98.6101 51.5927C98.2487 51.9945 98.068 52.5652 98.068 53.3022C98.068 54.0392 98.2487 54.6217 98.6101 55.0283C98.9715 55.4349 99.4446 55.6369 100.032 55.6369C100.484 55.6369 100.859 55.5323 101.161 55.3207C101.463 55.1091 101.67 54.8096 101.782 54.4173H102.887C102.721 55.0497 102.39 55.5561 101.894 55.9341C101.397 56.3145 100.776 56.5048 100.032 56.5048C99.4446 56.5048 98.924 56.374 98.4698 56.1101C98.0133 55.8462 97.6591 55.4753 97.4023 54.9926C97.1455 54.5124 97.0195 53.9465 97.0195 53.2998C97.0195 52.6531 97.1479 52.1015 97.4023 51.6236V51.626Z"
        fill="#1E1E1E" />
    <path
        d="M107.255 56.4046L104.828 53.6728V56.4046H103.801V48.0522H104.828V52.9619L107.21 50.2182H108.644L105.731 53.2995L108.653 56.4022H107.253L107.255 56.4046Z"
        fill="#1E1E1E" />
    <path
        d="M114.771 53.6969H109.828C109.866 54.3055 110.075 54.7834 110.453 55.1258C110.833 55.4681 111.295 55.6393 111.837 55.6393C112.281 55.6393 112.652 55.5371 112.95 55.3279C113.247 55.121 113.456 54.8452 113.575 54.4981H114.68C114.514 55.0925 114.183 55.5751 113.687 55.9484C113.19 56.3217 112.574 56.5071 111.837 56.5071C111.25 56.5071 110.724 56.3764 110.263 56.1125C109.799 55.8485 109.438 55.4753 109.174 54.9902C108.91 54.5052 108.779 53.9418 108.779 53.3022C108.779 52.6626 108.908 52.1015 109.162 51.6213C109.419 51.141 109.778 50.7701 110.239 50.5086C110.703 50.2494 111.233 50.1187 111.837 50.1187C112.441 50.1187 112.942 50.247 113.394 50.5014C113.846 50.7582 114.193 51.1101 114.438 51.5571C114.683 52.0041 114.804 52.5105 114.804 53.0739C114.804 53.2689 114.792 53.4758 114.771 53.6945V53.6969ZM113.484 51.8519C113.311 51.569 113.076 51.355 112.778 51.2076C112.481 51.0602 112.153 50.9865 111.792 50.9865C111.273 50.9865 110.831 51.1529 110.465 51.4834C110.099 51.8138 109.892 52.2727 109.84 52.86H113.744C113.744 52.4677 113.658 52.1324 113.484 51.8495V51.8519Z"
        fill="#1E1E1E" />
    <path
        d="M115.705 51.6257C115.962 51.1478 116.314 50.7769 116.761 50.513C117.208 50.2491 117.709 50.1183 118.268 50.1183C118.748 50.1183 119.198 50.2301 119.611 50.4512C120.025 50.6723 120.341 50.9647 120.56 51.3261V48.0522H121.599V56.4046H120.56V55.242C120.358 55.6105 120.056 55.9124 119.657 56.1502C119.257 56.3879 118.791 56.5068 118.256 56.5068C117.721 56.5068 117.208 56.3713 116.761 56.1003C116.314 55.8292 115.962 55.4488 115.705 54.9614C115.448 54.4716 115.322 53.9153 115.322 53.29C115.322 52.6647 115.451 52.1036 115.705 51.6257ZM120.277 52.0822C120.089 51.7351 119.835 51.4712 119.516 51.2857C119.195 51.1026 118.846 51.0099 118.461 51.0099C118.075 51.0099 117.726 51.1003 117.412 51.281C117.096 51.4617 116.844 51.7256 116.656 52.0703C116.468 52.4174 116.373 52.824 116.373 53.29C116.373 53.756 116.468 54.1768 116.656 54.5263C116.844 54.8758 117.096 55.1445 117.412 55.3275C117.728 55.513 118.078 55.6033 118.461 55.6033C118.843 55.6033 119.195 55.5106 119.516 55.3275C119.835 55.1421 120.089 54.8758 120.277 54.5263C120.465 54.1768 120.56 53.7679 120.56 53.3019C120.56 52.8359 120.465 52.4293 120.277 52.0822Z"
        fill="#1E1E1E" />
    <path
        d="M127.4 50.4678C127.806 50.2348 128.27 50.1183 128.788 50.1183C129.344 50.1183 129.846 50.2491 130.288 50.513C130.733 50.7769 131.082 51.1478 131.337 51.6257C131.594 52.1036 131.72 52.6576 131.72 53.29C131.72 53.9224 131.591 54.4716 131.337 54.9614C131.08 55.4512 130.728 55.8292 130.281 56.1003C129.834 56.3713 129.335 56.5068 128.786 56.5068C128.237 56.5068 127.782 56.3903 127.381 56.1573C126.979 55.9243 126.675 55.6271 126.472 55.2657V56.4046H125.445V48.0522H126.472V51.3713C126.684 51.0028 126.991 50.7008 127.397 50.4678H127.4ZM130.391 52.0703C130.203 51.7232 129.948 51.4617 129.63 51.281C129.309 51.1003 128.959 51.0099 128.574 51.0099C128.189 51.0099 127.849 51.1026 127.53 51.2857C127.209 51.4712 126.955 51.7374 126.762 52.0869C126.57 52.4364 126.475 52.8406 126.475 53.2995C126.475 53.7584 126.57 54.1744 126.762 54.5239C126.955 54.8734 127.209 55.1421 127.53 55.3252C127.849 55.5106 128.199 55.601 128.574 55.601C128.95 55.601 129.309 55.5082 129.63 55.3252C129.948 55.1397 130.203 54.8734 130.391 54.5239C130.578 54.1744 130.674 53.7631 130.674 53.2876C130.674 52.8121 130.578 52.4151 130.391 52.0679V52.0703Z"
        fill="#1E1E1E" />
    <path
        d="M137.953 50.2212L134.227 59.3177H133.167L134.387 56.3386L131.893 50.2212H133.031L134.972 55.2331L136.89 50.2212H137.951H137.953Z"
        fill="#1E1E1E" />
    <path
        d="M145.046 50.4681C145.448 50.7011 145.747 50.9959 145.942 51.3478V50.2184H146.981V56.538C146.981 57.1015 146.86 57.6055 146.62 58.0453C146.38 58.4852 146.035 58.8299 145.588 59.0772C145.141 59.3245 144.62 59.4505 144.026 59.4505C143.213 59.4505 142.535 59.2579 141.996 58.8751C141.456 58.4923 141.135 57.9693 141.037 57.3059H142.053C142.164 57.6816 142.4 57.9859 142.752 58.2141C143.106 58.4424 143.532 58.5589 144.026 58.5589C144.59 58.5589 145.051 58.383 145.41 58.0287C145.766 57.6744 145.945 57.1775 145.945 56.538V55.2398C145.743 55.6012 145.441 55.9032 145.041 56.1433C144.642 56.3834 144.176 56.5047 143.641 56.5047C143.106 56.5047 142.592 56.3692 142.145 56.0981C141.698 55.8271 141.347 55.4467 141.09 54.9593C140.833 54.4695 140.707 53.9132 140.707 53.2879C140.707 52.6626 140.835 52.1015 141.09 51.6236C141.347 51.1457 141.698 50.7748 142.145 50.5109C142.592 50.247 143.092 50.1162 143.641 50.1162C144.19 50.1162 144.644 50.2327 145.046 50.4657V50.4681ZM145.662 52.0824C145.474 51.7353 145.22 51.4714 144.901 51.286C144.58 51.1029 144.231 51.0102 143.845 51.0102C143.46 51.0102 143.111 51.1005 142.797 51.2812C142.481 51.4619 142.229 51.7258 142.041 52.0706C141.853 52.4177 141.758 52.8242 141.758 53.2902C141.758 53.7562 141.853 54.1771 142.041 54.5266C142.229 54.8761 142.481 55.1447 142.797 55.3278C143.113 55.5133 143.463 55.6036 143.845 55.6036C144.228 55.6036 144.58 55.5109 144.901 55.3278C145.22 55.1424 145.474 54.8761 145.662 54.5266C145.85 54.1771 145.945 53.7681 145.945 53.3021C145.945 52.8361 145.85 52.4296 145.662 52.0824Z"
        fill="#1E1E1E" />
    <path
        d="M149.392 56.1125C148.921 55.8485 148.553 55.4753 148.287 54.9902C148.02 54.5052 147.885 53.9418 147.885 53.3022C147.885 52.6626 148.023 52.111 148.296 51.626C148.569 51.141 148.945 50.7677 149.418 50.5086C149.891 50.2494 150.422 50.1187 151.009 50.1187C151.596 50.1187 152.126 50.2494 152.599 50.5086C153.073 50.7677 153.448 51.1386 153.722 51.6213C153.995 52.1039 154.133 52.6626 154.133 53.3022C154.133 53.9418 153.993 54.5052 153.71 54.9902C153.427 55.4753 153.046 55.8509 152.564 56.1125C152.081 56.3764 151.549 56.5071 150.961 56.5071C150.374 56.5071 149.858 56.3764 149.387 56.1125H149.392ZM152.005 55.3445C152.328 55.1709 152.59 54.9118 152.79 54.5647C152.989 54.2175 153.089 53.7967 153.089 53.2998C153.089 52.8029 152.992 52.3821 152.797 52.035C152.602 51.6878 152.345 51.4311 152.029 51.2623C151.713 51.0934 151.37 51.0079 151.002 51.0079C150.633 51.0079 150.281 51.0934 149.97 51.2623C149.658 51.4311 149.406 51.6902 149.219 52.035C149.031 52.3821 148.936 52.8029 148.936 53.2998C148.936 53.7967 149.028 54.2294 149.211 54.5742C149.397 54.9213 149.642 55.1781 149.951 55.3469C150.26 55.5157 150.598 55.6013 150.966 55.6013C151.335 55.6013 151.682 55.5157 152.005 55.3421V55.3445Z"
        fill="#1E1E1E" />
    <path d="M156.066 48.0522V56.4046H155.039V48.0522H156.066Z" fill="#1E1E1E" />
    <path
        d="M157.367 51.6257C157.624 51.1478 157.976 50.7769 158.423 50.513C158.87 50.2491 159.371 50.1183 159.93 50.1183C160.41 50.1183 160.86 50.2301 161.273 50.4512C161.687 50.6723 162.003 50.9647 162.222 51.3261V48.0522H163.261V56.4046H162.222V55.242C162.02 55.6105 161.718 55.9124 161.319 56.1502C160.919 56.3879 160.453 56.5068 159.918 56.5068C159.383 56.5068 158.87 56.3713 158.423 56.1003C157.976 55.8292 157.624 55.4488 157.367 54.9614C157.11 54.4716 156.984 53.9153 156.984 53.29C156.984 52.6647 157.113 52.1036 157.367 51.6257ZM161.937 52.0822C161.749 51.7351 161.495 51.4712 161.176 51.2857C160.855 51.1026 160.506 51.0099 160.12 51.0099C159.735 51.0099 159.386 51.1003 159.072 51.281C158.756 51.4617 158.504 51.7256 158.316 52.0703C158.128 52.4174 158.033 52.824 158.033 53.29C158.033 53.756 158.128 54.1768 158.316 54.5263C158.504 54.8758 158.756 55.1445 159.072 55.3275C159.388 55.513 159.738 55.6033 160.12 55.6033C160.503 55.6033 160.855 55.5106 161.176 55.3275C161.495 55.1421 161.749 54.8758 161.937 54.5263C162.125 54.1768 162.22 53.7679 162.22 53.3019C162.22 52.8359 162.125 52.4293 161.937 52.0822Z"
        fill="#1E1E1E" />
</svg>